<mxfile host="app.diagrams.net" modified="2023-09-27T23:25:56.076Z" agent="Mozilla/5.0 (Windows NT 10.0; Win64; x64) AppleWebKit/537.36 (KHTML, like Gecko) Chrome/116.0.0.0 Safari/537.36" etag="lNNUYTEsu7eOcmULaWgN" version="21.8.2" type="device">
  <diagram id="C5RBs43oDa-KdzZeNtuy" name="Page-1">
    <mxGraphModel dx="2783" dy="2142" grid="1" gridSize="10" guides="1" tooltips="1" connect="1" arrows="1" fold="1" page="1" pageScale="1" pageWidth="827" pageHeight="1169" math="0" shadow="0">
      <root>
        <mxCell id="WIyWlLk6GJQsqaUBKTNV-0" />
        <mxCell id="WIyWlLk6GJQsqaUBKTNV-1" parent="WIyWlLk6GJQsqaUBKTNV-0" />
        <mxCell id="BZ8kW_yFjWGWkspvIZ61-4" value="SistemaCodigoAzul" style="swimlane;fontStyle=1;align=center;verticalAlign=top;childLayout=stackLayout;horizontal=1;startSize=26;horizontalStack=0;resizeParent=1;resizeParentMax=0;resizeLast=0;collapsible=1;marginBottom=0;whiteSpace=wrap;html=1;" parent="WIyWlLk6GJQsqaUBKTNV-1" vertex="1">
          <mxGeometry x="200" y="-584" width="160" height="180" as="geometry" />
        </mxCell>
        <mxCell id="BZ8kW_yFjWGWkspvIZ61-5" value="- nombre: String&lt;br&gt;- version: String&lt;br&gt;- areas: List&amp;lt;Area&amp;gt;&lt;br&gt;- usuarios: List&amp;lt;Usuario&amp;gt;" style="text;strokeColor=none;fillColor=none;align=left;verticalAlign=top;spacingLeft=4;spacingRight=4;overflow=hidden;rotatable=0;points=[[0,0.5],[1,0.5]];portConstraint=eastwest;whiteSpace=wrap;html=1;" parent="BZ8kW_yFjWGWkspvIZ61-4" vertex="1">
          <mxGeometry y="26" width="160" height="74" as="geometry" />
        </mxCell>
        <mxCell id="BZ8kW_yFjWGWkspvIZ61-6" value="" style="line;strokeWidth=1;fillColor=none;align=left;verticalAlign=middle;spacingTop=-1;spacingLeft=3;spacingRight=3;rotatable=0;labelPosition=right;points=[];portConstraint=eastwest;strokeColor=inherit;" parent="BZ8kW_yFjWGWkspvIZ61-4" vertex="1">
          <mxGeometry y="100" width="160" height="8" as="geometry" />
        </mxCell>
        <mxCell id="BZ8kW_yFjWGWkspvIZ61-7" value="+iniciarAlarma(): void&lt;br&gt;+detenerAlarma(): void&lt;br&gt;+crearUsuario(): Usuario&lt;br&gt;+generarReporte():Reporte" style="text;strokeColor=none;fillColor=none;align=left;verticalAlign=top;spacingLeft=4;spacingRight=4;overflow=hidden;rotatable=0;points=[[0,0.5],[1,0.5]];portConstraint=eastwest;whiteSpace=wrap;html=1;" parent="BZ8kW_yFjWGWkspvIZ61-4" vertex="1">
          <mxGeometry y="108" width="160" height="72" as="geometry" />
        </mxCell>
        <mxCell id="BZ8kW_yFjWGWkspvIZ61-8" value="Area" style="swimlane;fontStyle=1;align=center;verticalAlign=top;childLayout=stackLayout;horizontal=1;startSize=26;horizontalStack=0;resizeParent=1;resizeParentMax=0;resizeLast=0;collapsible=1;marginBottom=0;whiteSpace=wrap;html=1;" parent="WIyWlLk6GJQsqaUBKTNV-1" vertex="1">
          <mxGeometry x="190" y="-830" width="180" height="200" as="geometry" />
        </mxCell>
        <mxCell id="BZ8kW_yFjWGWkspvIZ61-9" value="&lt;p style=&quot;font-size: 11px;&quot; class=&quot;MsoNormal&quot;&gt;&lt;font style=&quot;font-size: 11px;&quot;&gt;- nombre: String&amp;nbsp; &amp;nbsp; &amp;nbsp; &amp;nbsp; &amp;nbsp; &amp;nbsp; &amp;nbsp; &amp;nbsp;&amp;nbsp;&lt;/font&gt;&lt;/p&gt;&lt;font style=&quot;font-size: 11px;&quot;&gt;&lt;span style=&quot;background-color: initial;&quot;&gt;- descripcion: String&amp;nbsp; &amp;nbsp; &amp;nbsp; &amp;nbsp; &amp;nbsp; &amp;nbsp;&lt;/span&gt;&lt;br&gt;&lt;span style=&quot;background-color: initial;&quot;&gt;- pacientes:List&amp;lt;Paciente&amp;gt;&amp;nbsp; &amp;nbsp;&amp;nbsp;&lt;/span&gt;&lt;br&gt;- enfermeros:List&amp;lt;Enfermero&amp;gt;&amp;nbsp; &amp;nbsp;&lt;/font&gt;" style="text;strokeColor=none;fillColor=none;align=left;verticalAlign=top;spacingLeft=4;spacingRight=4;overflow=hidden;rotatable=0;points=[[0,0.5],[1,0.5]];portConstraint=eastwest;whiteSpace=wrap;html=1;" parent="BZ8kW_yFjWGWkspvIZ61-8" vertex="1">
          <mxGeometry y="26" width="180" height="90" as="geometry" />
        </mxCell>
        <mxCell id="BZ8kW_yFjWGWkspvIZ61-10" value="" style="line;strokeWidth=1;fillColor=none;align=left;verticalAlign=middle;spacingTop=-1;spacingLeft=3;spacingRight=3;rotatable=0;labelPosition=right;points=[];portConstraint=eastwest;strokeColor=inherit;" parent="BZ8kW_yFjWGWkspvIZ61-8" vertex="1">
          <mxGeometry y="116" width="180" height="8" as="geometry" />
        </mxCell>
        <mxCell id="BZ8kW_yFjWGWkspvIZ61-11" value="&lt;p style=&quot;font-size: 13px;&quot; class=&quot;MsoNormal&quot;&gt;&lt;font style=&quot;font-size: 13px;&quot;&gt;&amp;nbsp;+ asignarPaciente(): void&amp;nbsp;&amp;nbsp;&amp;nbsp;&amp;nbsp;&amp;nbsp;&amp;nbsp; &lt;/font&gt;&lt;/p&gt;&lt;font style=&quot;font-size: 13px;&quot;&gt;&lt;font style=&quot;font-size: 13px;&quot;&gt;&lt;span style=&quot;background-color: initial;&quot;&gt;&amp;nbsp;+ asignarEnfermero():&amp;nbsp;&lt;/span&gt;&lt;span style=&quot;background-color: initial;&quot;&gt;void&amp;nbsp; &amp;nbsp; &amp;nbsp;&lt;/span&gt;&lt;/font&gt;&lt;span style=&quot;font-size: 11px; background-color: initial;&quot;&gt;&lt;br&gt;&lt;/span&gt;&lt;/font&gt;" style="text;strokeColor=none;fillColor=none;align=left;verticalAlign=top;spacingLeft=4;spacingRight=4;overflow=hidden;rotatable=0;points=[[0,0.5],[1,0.5]];portConstraint=eastwest;whiteSpace=wrap;html=1;" parent="BZ8kW_yFjWGWkspvIZ61-8" vertex="1">
          <mxGeometry y="124" width="180" height="76" as="geometry" />
        </mxCell>
        <mxCell id="X-sA4d0Xlz8VnCC0lcOa-5" style="edgeStyle=orthogonalEdgeStyle;rounded=0;orthogonalLoop=1;jettySize=auto;html=1;entryX=0.5;entryY=0;entryDx=0;entryDy=0;" parent="WIyWlLk6GJQsqaUBKTNV-1" source="BZ8kW_yFjWGWkspvIZ61-17" target="BZ8kW_yFjWGWkspvIZ61-29" edge="1">
          <mxGeometry relative="1" as="geometry" />
        </mxCell>
        <mxCell id="BZ8kW_yFjWGWkspvIZ61-17" value="Usuario" style="swimlane;fontStyle=1;align=center;verticalAlign=top;childLayout=stackLayout;horizontal=1;startSize=26;horizontalStack=0;resizeParent=1;resizeParentMax=0;resizeLast=0;collapsible=1;marginBottom=0;whiteSpace=wrap;html=1;" parent="WIyWlLk6GJQsqaUBKTNV-1" vertex="1">
          <mxGeometry x="490" y="-830" width="160" height="140" as="geometry" />
        </mxCell>
        <mxCell id="BZ8kW_yFjWGWkspvIZ61-18" value="- id: int&lt;br&gt;- nombreUsuario: String&lt;br&gt;- tipoUsuario: TipoUsuario" style="text;strokeColor=none;fillColor=none;align=left;verticalAlign=top;spacingLeft=4;spacingRight=4;overflow=hidden;rotatable=0;points=[[0,0.5],[1,0.5]];portConstraint=eastwest;whiteSpace=wrap;html=1;" parent="BZ8kW_yFjWGWkspvIZ61-17" vertex="1">
          <mxGeometry y="26" width="160" height="64" as="geometry" />
        </mxCell>
        <mxCell id="BZ8kW_yFjWGWkspvIZ61-19" value="" style="line;strokeWidth=1;fillColor=none;align=left;verticalAlign=middle;spacingTop=-1;spacingLeft=3;spacingRight=3;rotatable=0;labelPosition=right;points=[];portConstraint=eastwest;strokeColor=inherit;" parent="BZ8kW_yFjWGWkspvIZ61-17" vertex="1">
          <mxGeometry y="90" width="160" height="8" as="geometry" />
        </mxCell>
        <mxCell id="BZ8kW_yFjWGWkspvIZ61-20" value="+ iniciarSesion(): void&lt;br&gt;+ cerrarSesion(): void" style="text;strokeColor=none;fillColor=none;align=left;verticalAlign=top;spacingLeft=4;spacingRight=4;overflow=hidden;rotatable=0;points=[[0,0.5],[1,0.5]];portConstraint=eastwest;whiteSpace=wrap;html=1;" parent="BZ8kW_yFjWGWkspvIZ61-17" vertex="1">
          <mxGeometry y="98" width="160" height="42" as="geometry" />
        </mxCell>
        <mxCell id="BZ8kW_yFjWGWkspvIZ61-21" value="Paciente" style="swimlane;fontStyle=1;align=center;verticalAlign=top;childLayout=stackLayout;horizontal=1;startSize=26;horizontalStack=0;resizeParent=1;resizeParentMax=0;resizeLast=0;collapsible=1;marginBottom=0;whiteSpace=wrap;html=1;" parent="WIyWlLk6GJQsqaUBKTNV-1" vertex="1">
          <mxGeometry x="-340" y="-830" width="200" height="160" as="geometry" />
        </mxCell>
        <mxCell id="BZ8kW_yFjWGWkspvIZ61-22" value="- id: int&lt;br&gt;- nombre: String&lt;br&gt;- datosMedicos: DatosMedicos&lt;br&gt;- ubicacion: String&lt;br&gt;- enfermeroAsignado: Enfermero" style="text;strokeColor=none;fillColor=none;align=left;verticalAlign=top;spacingLeft=4;spacingRight=4;overflow=hidden;rotatable=0;points=[[0,0.5],[1,0.5]];portConstraint=eastwest;whiteSpace=wrap;html=1;" parent="BZ8kW_yFjWGWkspvIZ61-21" vertex="1">
          <mxGeometry y="26" width="200" height="94" as="geometry" />
        </mxCell>
        <mxCell id="BZ8kW_yFjWGWkspvIZ61-23" value="" style="line;strokeWidth=1;fillColor=none;align=left;verticalAlign=middle;spacingTop=-1;spacingLeft=3;spacingRight=3;rotatable=0;labelPosition=right;points=[];portConstraint=eastwest;strokeColor=inherit;" parent="BZ8kW_yFjWGWkspvIZ61-21" vertex="1">
          <mxGeometry y="120" width="200" height="8" as="geometry" />
        </mxCell>
        <mxCell id="BZ8kW_yFjWGWkspvIZ61-24" value="+ actualizarDatosMedicos(): void" style="text;strokeColor=none;fillColor=none;align=left;verticalAlign=top;spacingLeft=4;spacingRight=4;overflow=hidden;rotatable=0;points=[[0,0.5],[1,0.5]];portConstraint=eastwest;whiteSpace=wrap;html=1;" parent="BZ8kW_yFjWGWkspvIZ61-21" vertex="1">
          <mxGeometry y="128" width="200" height="32" as="geometry" />
        </mxCell>
        <mxCell id="X-sA4d0Xlz8VnCC0lcOa-7" style="edgeStyle=orthogonalEdgeStyle;rounded=0;orthogonalLoop=1;jettySize=auto;html=1;exitX=0.5;exitY=0;exitDx=0;exitDy=0;" parent="WIyWlLk6GJQsqaUBKTNV-1" source="BZ8kW_yFjWGWkspvIZ61-25" target="BZ8kW_yFjWGWkspvIZ61-21" edge="1">
          <mxGeometry relative="1" as="geometry" />
        </mxCell>
        <mxCell id="X-sA4d0Xlz8VnCC0lcOa-9" style="edgeStyle=orthogonalEdgeStyle;rounded=0;orthogonalLoop=1;jettySize=auto;html=1;" parent="WIyWlLk6GJQsqaUBKTNV-1" source="BZ8kW_yFjWGWkspvIZ61-25" target="BZ8kW_yFjWGWkspvIZ61-33" edge="1">
          <mxGeometry relative="1" as="geometry">
            <Array as="points">
              <mxPoint x="-245" y="-370" />
              <mxPoint x="-250" y="-370" />
            </Array>
          </mxGeometry>
        </mxCell>
        <mxCell id="BZ8kW_yFjWGWkspvIZ61-25" value="DatosMedico" style="swimlane;fontStyle=1;align=center;verticalAlign=top;childLayout=stackLayout;horizontal=1;startSize=26;horizontalStack=0;resizeParent=1;resizeParentMax=0;resizeLast=0;collapsible=1;marginBottom=0;whiteSpace=wrap;html=1;" parent="WIyWlLk6GJQsqaUBKTNV-1" vertex="1">
          <mxGeometry x="-340" y="-560" width="190" height="180" as="geometry" />
        </mxCell>
        <mxCell id="BZ8kW_yFjWGWkspvIZ61-26" value="- altura: float&lt;br&gt;- peso: float&lt;br&gt;- presionArterial: String&lt;br&gt;- alergias: String[]&lt;br&gt;- enfermedades: String[]" style="text;strokeColor=none;fillColor=none;align=left;verticalAlign=top;spacingLeft=4;spacingRight=4;overflow=hidden;rotatable=0;points=[[0,0.5],[1,0.5]];portConstraint=eastwest;whiteSpace=wrap;html=1;" parent="BZ8kW_yFjWGWkspvIZ61-25" vertex="1">
          <mxGeometry y="26" width="190" height="94" as="geometry" />
        </mxCell>
        <mxCell id="BZ8kW_yFjWGWkspvIZ61-27" value="" style="line;strokeWidth=1;fillColor=none;align=left;verticalAlign=middle;spacingTop=-1;spacingLeft=3;spacingRight=3;rotatable=0;labelPosition=right;points=[];portConstraint=eastwest;strokeColor=inherit;" parent="BZ8kW_yFjWGWkspvIZ61-25" vertex="1">
          <mxGeometry y="120" width="190" height="8" as="geometry" />
        </mxCell>
        <mxCell id="BZ8kW_yFjWGWkspvIZ61-28" value="+agregarAlergia(): void&lt;br&gt;+ agregarEnfermedad(): void" style="text;strokeColor=none;fillColor=none;align=left;verticalAlign=top;spacingLeft=4;spacingRight=4;overflow=hidden;rotatable=0;points=[[0,0.5],[1,0.5]];portConstraint=eastwest;whiteSpace=wrap;html=1;" parent="BZ8kW_yFjWGWkspvIZ61-25" vertex="1">
          <mxGeometry y="128" width="190" height="52" as="geometry" />
        </mxCell>
        <mxCell id="BZ8kW_yFjWGWkspvIZ61-29" value="Enfermero" style="swimlane;fontStyle=1;align=center;verticalAlign=top;childLayout=stackLayout;horizontal=1;startSize=26;horizontalStack=0;resizeParent=1;resizeParentMax=0;resizeLast=0;collapsible=1;marginBottom=0;whiteSpace=wrap;html=1;" parent="WIyWlLk6GJQsqaUBKTNV-1" vertex="1">
          <mxGeometry x="500" y="-560" width="160" height="120" as="geometry" />
        </mxCell>
        <mxCell id="BZ8kW_yFjWGWkspvIZ61-30" value="- id: int&lt;br&gt;- nombre: String&lt;br&gt;- areaAsignada: Area" style="text;strokeColor=none;fillColor=none;align=left;verticalAlign=top;spacingLeft=4;spacingRight=4;overflow=hidden;rotatable=0;points=[[0,0.5],[1,0.5]];portConstraint=eastwest;whiteSpace=wrap;html=1;" parent="BZ8kW_yFjWGWkspvIZ61-29" vertex="1">
          <mxGeometry y="26" width="160" height="54" as="geometry" />
        </mxCell>
        <mxCell id="BZ8kW_yFjWGWkspvIZ61-31" value="" style="line;strokeWidth=1;fillColor=none;align=left;verticalAlign=middle;spacingTop=-1;spacingLeft=3;spacingRight=3;rotatable=0;labelPosition=right;points=[];portConstraint=eastwest;strokeColor=inherit;" parent="BZ8kW_yFjWGWkspvIZ61-29" vertex="1">
          <mxGeometry y="80" width="160" height="8" as="geometry" />
        </mxCell>
        <mxCell id="BZ8kW_yFjWGWkspvIZ61-32" value="+atenderPaciente(): void" style="text;strokeColor=none;fillColor=none;align=left;verticalAlign=top;spacingLeft=4;spacingRight=4;overflow=hidden;rotatable=0;points=[[0,0.5],[1,0.5]];portConstraint=eastwest;whiteSpace=wrap;html=1;" parent="BZ8kW_yFjWGWkspvIZ61-29" vertex="1">
          <mxGeometry y="88" width="160" height="32" as="geometry" />
        </mxCell>
        <mxCell id="X-sA4d0Xlz8VnCC0lcOa-1" style="edgeStyle=orthogonalEdgeStyle;rounded=0;orthogonalLoop=1;jettySize=auto;html=1;entryX=0.5;entryY=0;entryDx=0;entryDy=0;" parent="WIyWlLk6GJQsqaUBKTNV-1" source="BZ8kW_yFjWGWkspvIZ61-33" target="BZ8kW_yFjWGWkspvIZ61-41" edge="1">
          <mxGeometry relative="1" as="geometry" />
        </mxCell>
        <mxCell id="Gy1JKrSiZtkoI-FyGQPO-1" style="edgeStyle=orthogonalEdgeStyle;rounded=0;orthogonalLoop=1;jettySize=auto;html=1;exitX=0.856;exitY=1.109;exitDx=0;exitDy=0;exitPerimeter=0;entryX=0.5;entryY=1.094;entryDx=0;entryDy=0;entryPerimeter=0;" edge="1" parent="WIyWlLk6GJQsqaUBKTNV-1" source="BZ8kW_yFjWGWkspvIZ61-28" target="BZ8kW_yFjWGWkspvIZ61-32">
          <mxGeometry relative="1" as="geometry">
            <mxPoint x="576.96" y="-390" as="targetPoint" />
            <mxPoint x="-150.00000000000003" y="-322.2520000000002" as="sourcePoint" />
            <Array as="points">
              <mxPoint x="-177" y="-290" />
              <mxPoint x="577" y="-290" />
              <mxPoint x="577" y="-437" />
            </Array>
          </mxGeometry>
        </mxCell>
        <mxCell id="BZ8kW_yFjWGWkspvIZ61-33" value="Reporte" style="swimlane;fontStyle=1;align=center;verticalAlign=top;childLayout=stackLayout;horizontal=1;startSize=26;horizontalStack=0;resizeParent=1;resizeParentMax=0;resizeLast=0;collapsible=1;marginBottom=0;whiteSpace=wrap;html=1;" parent="WIyWlLk6GJQsqaUBKTNV-1" vertex="1">
          <mxGeometry x="-340" y="-280" width="180" height="120" as="geometry" />
        </mxCell>
        <mxCell id="BZ8kW_yFjWGWkspvIZ61-34" value="- id: int&lt;br&gt;- tipoReporte: TipoReporte&lt;br&gt;- datos: DatosReporte(): void" style="text;strokeColor=none;fillColor=none;align=left;verticalAlign=top;spacingLeft=4;spacingRight=4;overflow=hidden;rotatable=0;points=[[0,0.5],[1,0.5]];portConstraint=eastwest;whiteSpace=wrap;html=1;" parent="BZ8kW_yFjWGWkspvIZ61-33" vertex="1">
          <mxGeometry y="26" width="180" height="54" as="geometry" />
        </mxCell>
        <mxCell id="BZ8kW_yFjWGWkspvIZ61-35" value="" style="line;strokeWidth=1;fillColor=none;align=left;verticalAlign=middle;spacingTop=-1;spacingLeft=3;spacingRight=3;rotatable=0;labelPosition=right;points=[];portConstraint=eastwest;strokeColor=inherit;" parent="BZ8kW_yFjWGWkspvIZ61-33" vertex="1">
          <mxGeometry y="80" width="180" height="8" as="geometry" />
        </mxCell>
        <mxCell id="BZ8kW_yFjWGWkspvIZ61-36" value="+generarReporte(): void" style="text;strokeColor=none;fillColor=none;align=left;verticalAlign=top;spacingLeft=4;spacingRight=4;overflow=hidden;rotatable=0;points=[[0,0.5],[1,0.5]];portConstraint=eastwest;whiteSpace=wrap;html=1;" parent="BZ8kW_yFjWGWkspvIZ61-33" vertex="1">
          <mxGeometry y="88" width="180" height="32" as="geometry" />
        </mxCell>
        <mxCell id="BZ8kW_yFjWGWkspvIZ61-41" value="DatosReporte" style="swimlane;fontStyle=1;align=center;verticalAlign=top;childLayout=stackLayout;horizontal=1;startSize=26;horizontalStack=0;resizeParent=1;resizeParentMax=0;resizeLast=0;collapsible=1;marginBottom=0;whiteSpace=wrap;html=1;" parent="WIyWlLk6GJQsqaUBKTNV-1" vertex="1">
          <mxGeometry x="-330" y="-40" width="160" height="114" as="geometry" />
        </mxCell>
        <mxCell id="BZ8kW_yFjWGWkspvIZ61-42" value="- fecha: Data&lt;br&gt;- tipo: TIpoReporte&lt;br&gt;- contenido: String" style="text;strokeColor=none;fillColor=none;align=left;verticalAlign=top;spacingLeft=4;spacingRight=4;overflow=hidden;rotatable=0;points=[[0,0.5],[1,0.5]];portConstraint=eastwest;whiteSpace=wrap;html=1;" parent="BZ8kW_yFjWGWkspvIZ61-41" vertex="1">
          <mxGeometry y="26" width="160" height="54" as="geometry" />
        </mxCell>
        <mxCell id="BZ8kW_yFjWGWkspvIZ61-43" value="" style="line;strokeWidth=1;fillColor=none;align=left;verticalAlign=middle;spacingTop=-1;spacingLeft=3;spacingRight=3;rotatable=0;labelPosition=right;points=[];portConstraint=eastwest;strokeColor=inherit;" parent="BZ8kW_yFjWGWkspvIZ61-41" vertex="1">
          <mxGeometry y="80" width="160" height="8" as="geometry" />
        </mxCell>
        <mxCell id="BZ8kW_yFjWGWkspvIZ61-44" value="+agregarContenido(): void" style="text;strokeColor=none;fillColor=none;align=left;verticalAlign=top;spacingLeft=4;spacingRight=4;overflow=hidden;rotatable=0;points=[[0,0.5],[1,0.5]];portConstraint=eastwest;whiteSpace=wrap;html=1;" parent="BZ8kW_yFjWGWkspvIZ61-41" vertex="1">
          <mxGeometry y="88" width="160" height="26" as="geometry" />
        </mxCell>
        <mxCell id="X-sA4d0Xlz8VnCC0lcOa-2" value="" style="endArrow=block;startArrow=block;endFill=1;startFill=1;html=1;rounded=0;exitX=0.491;exitY=1.053;exitDx=0;exitDy=0;exitPerimeter=0;entryX=0.5;entryY=0;entryDx=0;entryDy=0;" parent="WIyWlLk6GJQsqaUBKTNV-1" source="BZ8kW_yFjWGWkspvIZ61-11" target="BZ8kW_yFjWGWkspvIZ61-4" edge="1">
          <mxGeometry width="160" relative="1" as="geometry">
            <mxPoint x="40" y="-500.56" as="sourcePoint" />
            <mxPoint x="200" y="-500.56" as="targetPoint" />
          </mxGeometry>
        </mxCell>
        <mxCell id="X-sA4d0Xlz8VnCC0lcOa-3" style="edgeStyle=orthogonalEdgeStyle;rounded=0;orthogonalLoop=1;jettySize=auto;html=1;exitX=1;exitY=0.5;exitDx=0;exitDy=0;entryX=0;entryY=0.5;entryDx=0;entryDy=0;" parent="WIyWlLk6GJQsqaUBKTNV-1" source="BZ8kW_yFjWGWkspvIZ61-22" target="BZ8kW_yFjWGWkspvIZ61-9" edge="1">
          <mxGeometry relative="1" as="geometry" />
        </mxCell>
        <mxCell id="X-sA4d0Xlz8VnCC0lcOa-4" style="edgeStyle=orthogonalEdgeStyle;rounded=0;orthogonalLoop=1;jettySize=auto;html=1;exitX=0;exitY=0.5;exitDx=0;exitDy=0;entryX=1;entryY=0.5;entryDx=0;entryDy=0;" parent="WIyWlLk6GJQsqaUBKTNV-1" source="BZ8kW_yFjWGWkspvIZ61-18" target="BZ8kW_yFjWGWkspvIZ61-9" edge="1">
          <mxGeometry relative="1" as="geometry" />
        </mxCell>
        <mxCell id="Gy1JKrSiZtkoI-FyGQPO-0" style="edgeStyle=orthogonalEdgeStyle;rounded=0;orthogonalLoop=1;jettySize=auto;html=1;entryX=1;entryY=0.5;entryDx=0;entryDy=0;" edge="1" parent="WIyWlLk6GJQsqaUBKTNV-1" source="BZ8kW_yFjWGWkspvIZ61-30" target="BZ8kW_yFjWGWkspvIZ61-5">
          <mxGeometry relative="1" as="geometry">
            <mxPoint x="420" y="-480" as="targetPoint" />
          </mxGeometry>
        </mxCell>
        <mxCell id="Gy1JKrSiZtkoI-FyGQPO-2" value="emergencias" style="swimlane;fontStyle=0;childLayout=stackLayout;horizontal=1;startSize=26;fillColor=none;horizontalStack=0;resizeParent=1;resizeParentMax=0;resizeLast=0;collapsible=1;marginBottom=0;whiteSpace=wrap;html=1;" vertex="1" parent="WIyWlLk6GJQsqaUBKTNV-1">
          <mxGeometry x="-50" y="-670" width="180" height="120" as="geometry" />
        </mxCell>
        <mxCell id="Gy1JKrSiZtkoI-FyGQPO-3" value="-camas disponibles:int" style="text;strokeColor=none;fillColor=none;align=left;verticalAlign=top;spacingLeft=4;spacingRight=4;overflow=hidden;rotatable=0;points=[[0,0.5],[1,0.5]];portConstraint=eastwest;whiteSpace=wrap;html=1;" vertex="1" parent="Gy1JKrSiZtkoI-FyGQPO-2">
          <mxGeometry y="26" width="180" height="26" as="geometry" />
        </mxCell>
        <mxCell id="Gy1JKrSiZtkoI-FyGQPO-4" value="- personal medico:Medico[]" style="text;strokeColor=none;fillColor=none;align=left;verticalAlign=top;spacingLeft=4;spacingRight=4;overflow=hidden;rotatable=0;points=[[0,0.5],[1,0.5]];portConstraint=eastwest;whiteSpace=wrap;html=1;" vertex="1" parent="Gy1JKrSiZtkoI-FyGQPO-2">
          <mxGeometry y="52" width="180" height="38" as="geometry" />
        </mxCell>
        <mxCell id="Gy1JKrSiZtkoI-FyGQPO-5" value="-equipamiento:equipomédico[]" style="text;strokeColor=none;fillColor=none;align=left;verticalAlign=top;spacingLeft=4;spacingRight=4;overflow=hidden;rotatable=0;points=[[0,0.5],[1,0.5]];portConstraint=eastwest;whiteSpace=wrap;html=1;" vertex="1" parent="Gy1JKrSiZtkoI-FyGQPO-2">
          <mxGeometry y="90" width="180" height="30" as="geometry" />
        </mxCell>
        <mxCell id="Gy1JKrSiZtkoI-FyGQPO-9" value="" style="endArrow=block;startArrow=block;endFill=1;startFill=1;html=1;rounded=0;entryX=-0.005;entryY=0.172;entryDx=0;entryDy=0;entryPerimeter=0;exitX=1.006;exitY=0.191;exitDx=0;exitDy=0;exitPerimeter=0;" edge="1" parent="WIyWlLk6GJQsqaUBKTNV-1" source="Gy1JKrSiZtkoI-FyGQPO-5" target="BZ8kW_yFjWGWkspvIZ61-7">
          <mxGeometry width="160" relative="1" as="geometry">
            <mxPoint x="60" y="-370" as="sourcePoint" />
            <mxPoint x="220" y="-370" as="targetPoint" />
          </mxGeometry>
        </mxCell>
        <mxCell id="Gy1JKrSiZtkoI-FyGQPO-10" value="" style="endArrow=block;startArrow=block;endFill=1;startFill=1;html=1;rounded=0;entryX=0;entryY=0.5;entryDx=0;entryDy=0;" edge="1" parent="WIyWlLk6GJQsqaUBKTNV-1" target="BZ8kW_yFjWGWkspvIZ61-11">
          <mxGeometry width="160" relative="1" as="geometry">
            <mxPoint x="130" y="-668" as="sourcePoint" />
            <mxPoint x="209" y="-456" as="targetPoint" />
            <Array as="points" />
          </mxGeometry>
        </mxCell>
        <mxCell id="Gy1JKrSiZtkoI-FyGQPO-11" value="habitación" style="swimlane;fontStyle=0;childLayout=stackLayout;horizontal=1;startSize=26;fillColor=none;horizontalStack=0;resizeParent=1;resizeParentMax=0;resizeLast=0;collapsible=1;marginBottom=0;whiteSpace=wrap;html=1;" vertex="1" parent="WIyWlLk6GJQsqaUBKTNV-1">
          <mxGeometry x="-50" y="-460" width="140" height="78" as="geometry" />
        </mxCell>
        <mxCell id="Gy1JKrSiZtkoI-FyGQPO-13" value="-númerohabitación:int" style="text;strokeColor=none;fillColor=none;align=left;verticalAlign=top;spacingLeft=4;spacingRight=4;overflow=hidden;rotatable=0;points=[[0,0.5],[1,0.5]];portConstraint=eastwest;whiteSpace=wrap;html=1;" vertex="1" parent="Gy1JKrSiZtkoI-FyGQPO-11">
          <mxGeometry y="26" width="140" height="26" as="geometry" />
        </mxCell>
        <mxCell id="Gy1JKrSiZtkoI-FyGQPO-14" value="-camas: Cama[]" style="text;strokeColor=none;fillColor=none;align=left;verticalAlign=top;spacingLeft=4;spacingRight=4;overflow=hidden;rotatable=0;points=[[0,0.5],[1,0.5]];portConstraint=eastwest;whiteSpace=wrap;html=1;" vertex="1" parent="Gy1JKrSiZtkoI-FyGQPO-11">
          <mxGeometry y="52" width="140" height="26" as="geometry" />
        </mxCell>
        <mxCell id="Gy1JKrSiZtkoI-FyGQPO-16" value="" style="endArrow=block;startArrow=block;endFill=1;startFill=1;html=1;rounded=0;entryX=0.75;entryY=0;entryDx=0;entryDy=0;" edge="1" parent="WIyWlLk6GJQsqaUBKTNV-1" target="Gy1JKrSiZtkoI-FyGQPO-11">
          <mxGeometry width="160" relative="1" as="geometry">
            <mxPoint x="55" y="-550" as="sourcePoint" />
            <mxPoint x="209" y="-456" as="targetPoint" />
            <Array as="points" />
          </mxGeometry>
        </mxCell>
      </root>
    </mxGraphModel>
  </diagram>
</mxfile>
